<svg xmlns="http://www.w3.org/2000/svg" viewBox="0 0 198.56 56.12"><defs><style>.cls-1{fill:#fff;}</style></defs><title>logo-white</title><g id="Layer_1" data-name="Layer 1"><path class="cls-1" d="M117.34,42.65V12.07c.09-.08.15-.18.22-.18,4.58.06,9.21-.28,13.73.27,7.88,1,13.23,7.87,13,16A15.29,15.29,0,0,1,130.3,42.59C126.05,42.9,121.76,42.65,117.34,42.65Zm8-23.93V35.9c3.64.13,7.1-.19,9.18-3.57a9.19,9.19,0,0,0,.06-9.95C132.56,18.94,129.11,18.48,125.38,18.72Z" transform="translate(-1.24 -2.68)"/><path class="cls-1" d="M180.44,32.7l-.41-.14-.36-.16a.19.19,0,0,0-.21-.08l-.32-.18a.18.18,0,0,0-.19-.09l-.33-.21a11.75,11.75,0,0,1-3.07-16c2.35-3.37,5.79-4.85,9.73-5.17a18.8,18.8,0,0,1,5.45.34c7.07,1.53,10.56,7.77,8.46,14.9a26.53,26.53,0,0,1-4.54,8.5c-1.9,2.5-3.79,5-5.76,7.47a2.33,2.33,0,0,1-1.59.79c-2.6.09-5.21,0-8.09,0l7-8.49.24-.28h0l1.28-1.4A13.14,13.14,0,0,1,180.44,32.7ZM182,21.92a4.94,4.94,0,0,0,4.84,5.13A5.07,5.07,0,1,0,187,16.92,4.91,4.91,0,0,0,182,21.92Z" transform="translate(-1.24 -2.68)"/><path class="cls-1" d="M70.52,11.84c2.64,0,5.22,0,7.79,0,.38,0,.92.55,1.08,1,2.34,5.79,4.62,11.6,7,17.6.21-.39.34-.62.44-.86C89,24,91.28,18.48,93.46,12.91a1.42,1.42,0,0,1,1.61-1.1c2.44.07,4.89,0,7.48,0-.18.47-.29.82-.44,1.17Q96,27.35,89.92,41.71c-.31.73-.65,1.09-1.51,1-1.44-.09-2.89,0-4.33,0A1.43,1.43,0,0,1,83,42.07Q76.71,27.18,70.49,12.24C70.46,12.17,70.5,12.07,70.52,11.84Z" transform="translate(-1.24 -2.68)"/><path class="cls-1" d="M29.17,36.51c-3.37,5.19-10.62,7.62-16.84,5.75a15.53,15.53,0,0,1,.31-29.86c6.28-1.7,13.46.81,16.5,5.86L23,21.85c-3.71-3.67-9.08-3.53-12.37.14a8.21,8.21,0,0,0,.29,11.09c3.24,3.35,7.88,3.31,12-.18Z" transform="translate(-1.24 -2.68)"/><path class="cls-1" d="M162,42.61v-24h-4.3V11.87H170V42.61Z" transform="translate(-1.24 -2.68)"/><path class="cls-1" d="M113.44,42.68h-7.88V11.93h7.88Z" transform="translate(-1.24 -2.68)"/><path class="cls-1" d="M147.34,31.85V23.93h11v7.92Z" transform="translate(-1.24 -2.68)"/><path class="cls-1" d="M179.67,32.4l.36.16Z" transform="translate(-1.24 -2.68)"/><path class="cls-1" d="M178.62,31.84l.33.21Z" transform="translate(-1.24 -2.68)"/><path class="cls-1" d="M186.47,33.91l-.24.28Z" transform="translate(-1.24 -2.68)"/><path class="cls-1" d="M179.14,32.14l.32.18Z" transform="translate(-1.24 -2.68)"/><path class="cls-1" d="M147.26,50.77l-1.3,1.3a.9.9,0,0,0-.42-.69,2,2,0,0,0-.81-.11,2.55,2.55,0,0,1,1,1.95,1.57,1.57,0,0,1-.46,1.12A7.35,7.35,0,0,1,143,56.18a14,14,0,0,1-3.06.18,5.34,5.34,0,0,1-2.86-.49,2,2,0,0,1-.46-1.32,3.47,3.47,0,0,0-.77-1.95l1.32-1.32a2.8,2.8,0,0,1-.9-.09.74.74,0,0,1-.55-.68l1.29-1.3c.06.49.31.74.75.74h3.06q-.24-.47-.51-.9a1.21,1.21,0,0,0-1-.42h-2.81a.72.72,0,0,1-.52-.24,1,1,0,0,1-.27-.53L137,46.57c.06.49.31.74.75.74h8.16l-1.23,1.32H142l.22.25a.79.79,0,0,1,.16.39l-.69.68h4.51A1,1,0,0,1,147.26,50.77Zm-2.79,3.34c0-1.1-.75-1.89-2.23-2.37a12.28,12.28,0,0,0-3.64-.47,3,3,0,0,0-1.31.29,1.09,1.09,0,0,1,.38.8c0-.56,0-.25,0,.93,0,.62.39,1.09,1.19,1.41a6.36,6.36,0,0,0,2.56.44,7.28,7.28,0,0,0,2.15-.28C144.16,54.67,144.47,54.42,144.47,54.11Z" transform="translate(-1.24 -2.68)"/><path class="cls-1" d="M147,48.13l-1.3,1.29a.87.87,0,0,0-.94-.79h-2.8V47.31h4A1,1,0,0,1,147,48.13Z" transform="translate(-1.24 -2.68)"/><path class="cls-1" d="M158.57,52.65a3.36,3.36,0,0,1-1.34,2.56,4.27,4.27,0,0,1-2.79,1.15,4.88,4.88,0,0,1-2.84-1c-.07,0-.84-.7-2.29-2v1.69a2.42,2.42,0,0,0,.61,1.67,2,2,0,0,0,1.59.71l-1.32,1.3a2,2,0,0,1-1.57-.75,2.06,2.06,0,0,1-.61-1.37v-3.8c0-.26-.24-.4-.71-.4l1.3-1.27a3.28,3.28,0,0,1,2,1c1.35,1.18,2.07,1.8,2.16,1.84a4.92,4.92,0,0,0,2.9,1,2.13,2.13,0,0,0,1.06-.31,1.36,1.36,0,0,0,.57-1.23c0-1.57-1.2-2.83-3.45-3.77a15,15,0,0,0-5.68-1.1c-.38,0-.65-.25-.79-.77l1.3-1.29c0,.29.34.54.94.74h6.76l0,1.32h-.88Q158.57,50.37,158.57,52.65Z" transform="translate(-1.24 -2.68)"/><path class="cls-1" d="M165.81,51.92a4.63,4.63,0,0,1-1.13,3A3.36,3.36,0,0,1,162,56.36a2,2,0,0,1-1.67-.82,2.61,2.61,0,0,1-.57-1.68V52.35c0-.35-.25-.53-.75-.53l1.3-1.25a2.42,2.42,0,0,1,1.55.77,2.8,2.8,0,0,0,1.29.84L162,53.41a1.5,1.5,0,0,1-.61-.38,3.6,3.6,0,0,1-.33-.37,3.17,3.17,0,0,0,.24,1.53,1.73,1.73,0,0,0,1.73.85,1.44,1.44,0,0,0,1.05-.52,1.92,1.92,0,0,0,.39-1.41A4.56,4.56,0,0,0,163,49.58a4.64,4.64,0,0,0-3-.95h-6.15l1.45-1.32h6.32a3.75,3.75,0,0,1,2.92,1.45A4.71,4.71,0,0,1,165.81,51.92Z" transform="translate(-1.24 -2.68)"/><path class="cls-1" d="M174.65,47.31l-1.36,1.32h-4.23q-.66,0-.66.69v.92q0,.38,1.08.75a4.43,4.43,0,0,0,1.91.28l-1.32,1.3a3.31,3.31,0,0,1-1.67-.48V54c0,.25.33.5,1,.75a4.49,4.49,0,0,0,1.84.33l-1.32,1.3a4.87,4.87,0,0,1-1.9-.49c-.67-.31-1-.59-1-.84V53.75c0-.32-.14-.49-.41-.5l1-1c-.36-.34-.55-.6-.55-.78V49.12c0-.32-.14-.49-.41-.51l1.29-1.3c.43.2.61.39.53.55a1.48,1.48,0,0,1,1-.55Z" transform="translate(-1.24 -2.68)"/><path class="cls-1" d="M187,52.87a3.19,3.19,0,0,1-1.15,2.45,3.68,3.68,0,0,1-2.53,1,3.41,3.41,0,0,1-1.87-.52c-.16-.1-.64-.52-1.45-1.25l-1.6,1.77a2,2,0,0,1-1.57-.82,2.58,2.58,0,0,1-.61-1.68v-.61c0-.36-.25-.53-.75-.53l1.3-1.06a1.09,1.09,0,0,1-.62-1v-1.5c0-.33-.19-.51-.57-.53l1.3-1.3a1.05,1.05,0,0,1,.7,1.06V50a1.34,1.34,0,0,0,.73,1.1,2.3,2.3,0,0,0,1.08.39l-1.11,1.24a1.39,1.39,0,0,1-.72-.53,1.75,1.75,0,0,0,0,.4,2.32,2.32,0,0,0,.39,1.34,1.77,1.77,0,0,0,1.14.79c.37-.46.93-1.08,1.69-1.87l1.7,1.4a3.36,3.36,0,0,0,1.86.76c.71,0,1.1-.35,1.16-1.17a1.39,1.39,0,0,0-.44-1.19,4.78,4.78,0,0,0-1.5-.9l1.13-1.17a3.44,3.44,0,0,1,.61.27,2.09,2.09,0,0,0,.2-.82c0-.61-.55-1.17-1.65-1.67L185,47.12c1.28.58,1.92,1.23,1.92,1.94a3.43,3.43,0,0,1-1.21,2.11A2.19,2.19,0,0,1,187,52.87Z" transform="translate(-1.24 -2.68)"/><path class="cls-1" d="M199.31,50.77l-1.3,1.3a.93.93,0,0,0-.41-.69,2.14,2.14,0,0,0-.82-.11,2.56,2.56,0,0,1,1,1.95,1.58,1.58,0,0,1-.47,1.12A7.35,7.35,0,0,1,195,56.18a14,14,0,0,1-3.06.18,5.36,5.36,0,0,1-2.86-.49,2,2,0,0,1-.46-1.32,3.47,3.47,0,0,0-.77-1.95l1.32-1.32a2.8,2.8,0,0,1-.9-.09.74.74,0,0,1-.55-.68l1.3-1.3c0,.49.3.74.74.74h3.06c-.16-.31-.33-.61-.5-.9a1.23,1.23,0,0,0-1-.42h-2.82a.72.72,0,0,1-.52-.24,1,1,0,0,1-.27-.53l1.3-1.29c0,.49.3.74.74.74h8.17l-1.24,1.32h-2.64l.22.25a.79.79,0,0,1,.16.39l-.68.68h4.51A1,1,0,0,1,199.31,50.77Zm-2.79,3.34c0-1.1-.75-1.89-2.23-2.37a12.28,12.28,0,0,0-3.64-.47,3,3,0,0,0-1.3.29,1.08,1.08,0,0,1,.37.8c0-.56,0-.25,0,.93,0,.62.39,1.09,1.19,1.41a6.36,6.36,0,0,0,2.56.44,7.28,7.28,0,0,0,2.15-.28C196.21,54.67,196.52,54.42,196.52,54.11Z" transform="translate(-1.24 -2.68)"/><path class="cls-1" d="M199,48.13l-1.29,1.29a.89.89,0,0,0-1-.79H194V47.31h4A1,1,0,0,1,199,48.13Z" transform="translate(-1.24 -2.68)"/></g><g id="Layer_3" data-name="Layer 3"><path class="cls-1" d="M61.91,19.6c.54,1.86,1.05,3.63,1.59,5.51,1.69-.37,3.36-.3,4.26,1.61a2.68,2.68,0,0,1-.47,3.08c-1.16,1.31-2.59,1.32-4.21.58A12.77,12.77,0,0,0,62.16,33,1.72,1.72,0,0,0,63,34.34a28.06,28.06,0,0,0,4.14,2,37,37,0,0,0,4.2,1.11,3.11,3.11,0,0,1,2.61,2.75,2.9,2.9,0,0,1-1.73,3,3.27,3.27,0,0,1-3.71-.9,65.92,65.92,0,0,0-5.53-5c-1.84-1.41-2.35-1.21-4,.44-.61.62-1.26,1.2-2,1.9a18.78,18.78,0,0,0,1.67,1.75c.77.65,1.64,1.18,2.46,1.77a3.14,3.14,0,0,1,1.26,3.7,2.9,2.9,0,0,1-3.12,1.92A3.15,3.15,0,0,1,56.5,45.9c-.28-1.46-.62-2.91-1-4.35-.17-.67-.58-.89-1.3-.54-.9.44-1.87.74-2.4,1a20.55,20.55,0,0,1-1.13,3.95,2.79,2.79,0,0,1-2,.94c-2,.14-3-1.46-3-4.37a20.05,20.05,0,0,0-3.39-.86,1.94,1.94,0,0,0-1.51.91,31.92,31.92,0,0,0-1.9,4.61,38.47,38.47,0,0,0-.8,3.87,3.09,3.09,0,0,1-2.53,2.54A2.91,2.91,0,0,1,32.45,52,3.24,3.24,0,0,1,33,48.36c1.14-1.22,2.34-2.39,3.41-3.66.71-.84,1.22-1.83,1.85-2.73,1.42-2-.57-3.78-2.51-3.7-2.18.09-3.95-1.73-3.1-3.59.77-1.7,0-2.91-.41-4.37-.35,0-.66,0-1,0a3,3,0,0,1-.33-6c1.36-.2,1.59-.66.94-1.86-1.18-2.19-.31-4,2.15-4.67a2.51,2.51,0,0,0,1-.68c.62-.62,1.11-1.38,1.78-1.93a1.74,1.74,0,0,0,.26-2.76c-1-1.16-2.36-2.08-3.51-3.15a6.29,6.29,0,0,1-1.59-1.84,2.91,2.91,0,0,1,1.75-3.87A3.06,3.06,0,0,1,37.74,5.7c.26,1,.29,2,.53,3A10,10,0,0,0,39.13,11c.73,1.34,1.36,1.49,2.79,1,.86-.32,1.75-.57,2.8-.91-.25-.5-.47-.95-.68-1.41a3.16,3.16,0,0,1,.81-3.93,2.88,2.88,0,0,1,3.55-.06,3.18,3.18,0,0,1,1,3.78c-.15.4-.32.81-.51,1.3,1.53.4,3,.84,4.47,1.11.3.06.92-.42,1-.77a29.87,29.87,0,0,0,1-3.65c.15-.72.07-1.49.22-2.22a3.32,3.32,0,0,1,2.71-2.55,3,3,0,0,1,2.86,1.76,3.11,3.11,0,0,1-.63,3.65c-.31.3-.7.52-1,.82A24,24,0,0,0,57.38,11C56,12.64,56,13.12,57.7,14.52c.47.39.91.83,1.34,1.26s.83.91,1.39,1.54c.57-.74,1.1-1.4,1.61-2.08.37-.5.66-1.06,1.07-1.51a3,3,0,0,1,3.62-.7,3,3,0,0,1,1.6,3.06,3.08,3.08,0,0,1-2.44,2.63c-1.2.25-2.41.45-3.62.68A1.19,1.19,0,0,0,61.91,19.6ZM51.16,30.29c1.46.38,2.06.06,2.5-1.25a2.24,2.24,0,0,0-.86-2.66,2.5,2.5,0,0,0-3.06-.17c-1.52,1-1.41,2.35.17,3.26.37.22.72.49,1.08.74a8.73,8.73,0,0,0-7.62-.44,3.32,3.32,0,0,0-1.65,5.1c1.92,3.22,7.54,4.88,10.88,3.21,2.12-1,2.82-3.1,1.47-5A19.59,19.59,0,0,0,51.16,30.29Zm-5.7-12.72a3,3,0,0,0-3-3.15,4.38,4.38,0,0,0-4,4.39,3,3,0,0,0,3.09,3.1A4.4,4.4,0,0,0,45.46,17.57ZM38.28,29a2.19,2.19,0,0,0-2.13-2.08,1.62,1.62,0,0,0-1.74,1.59,2.11,2.11,0,0,0,2,2.14A1.76,1.76,0,0,0,38.28,29Z" transform="translate(-1.24 -2.68)"/></g></svg>